<svg width="26" height="26" viewBox="0 0 26 26" fill="none" xmlns="http://www.w3.org/2000/svg">
<path d="M7.32207 12.8437C8.47267 12.8437 9.40541 11.911 9.40541 10.7604C9.40541 9.60982 8.47267 8.67708 7.32207 8.67708C6.17148 8.67708 5.23874 9.60982 5.23874 10.7604C5.23874 11.911 6.17148 12.8437 7.32207 12.8437Z" fill="#363636"/>
<path d="M17.7388 12.8437C18.8894 12.8437 19.8221 11.911 19.8221 10.7604C19.8221 9.60982 18.8894 8.67708 17.7388 8.67708C16.5882 8.67708 15.6554 9.60982 15.6554 10.7604C15.6554 11.911 16.5882 12.8437 17.7388 12.8437Z" fill="#363636"/>
<path d="M23.0096 10.2196C22.83 3.18583 17.6575 0.03125 12.5304 0.03125C7.40417 0.03125 2.23167 3.18583 2.05125 10.2196C0.666669 10.405 0.0312525 11.5567 0.0312525 12.6329C0.0304192 13.2712 0.237086 13.8621 0.612919 14.2975C0.874169 14.6012 1.32917 14.9542 2.06375 15.0487C2.23959 17.0383 3.79125 19.5508 7.3975 20.7983C7.45542 20.8625 7.51875 20.9221 7.58125 20.9821C8.02292 23.2842 10.0729 25.0312 12.5304 25.0312C14.9896 25.0312 17.0388 23.2833 17.48 20.9817C17.5425 20.9212 17.6063 20.8621 17.6638 20.7979C21.2696 19.5504 22.8217 17.0383 22.9975 15.0475C24.3917 14.8675 25.0313 13.7121 25.0313 12.6333C25.0313 11.5567 24.3958 10.405 23.0096 10.2196M12.5304 24.4217C10.0808 24.4217 8.095 22.4679 8.095 20.0563C8.095 18.2017 9.27167 17.9412 10.9288 17.9192C10.9579 17.6904 11.1346 17.5108 11.3575 17.5108H13.7038C13.9267 17.5108 14.1033 17.6908 14.1317 17.9192C15.7888 17.9412 16.9663 18.2025 16.9663 20.0563C16.9667 22.4679 14.98 24.4217 12.5304 24.4217M17.5654 19.9383C17.5067 17.685 15.8392 17.3742 14.63 17.3221C14.2142 16.7075 13.4329 16.2908 12.5304 16.2908C11.6296 16.2908 10.8475 16.7075 10.4317 17.3221C9.2225 17.3742 7.555 17.685 7.49625 19.9383C7.035 19.2442 6.785 18.3988 6.785 17.4146C6.785 15.7888 7.41959 15.4704 8.51667 15.4704C8.98709 15.4704 9.54542 15.5346 10.1363 15.6029C10.8629 15.6875 11.6867 15.7829 12.5467 15.7829C13.4075 15.7829 14.2296 15.6875 14.9554 15.6029C15.5421 15.5346 16.0963 15.4704 16.5625 15.4704C17.6742 15.4704 18.2763 15.7804 18.2763 17.4146C18.2767 18.3988 18.0267 19.2433 17.5654 19.9383M22.6117 14.2587H22.2079V14.665C22.2079 16.2512 21.1246 18.3337 18.4417 19.6087C18.7296 18.9625 18.8813 18.2271 18.8813 17.4146C18.8813 15.6242 18.1879 14.8608 16.5629 14.8608C16.0617 14.8608 15.4913 14.9267 14.8867 14.9975C14.1771 15.0796 13.3729 15.1733 12.5471 15.1733C11.7221 15.1733 10.9163 15.0796 10.205 14.9975C9.59709 14.9275 9.02167 14.8608 8.51709 14.8608C7.42917 14.8608 6.18 15.1513 6.18 17.4146C6.18 18.2267 6.33209 18.9625 6.62042 19.6087C3.93667 18.3333 2.85334 16.2508 2.85334 14.665V14.2587H2.45C1.91875 14.2587 1.505 14.0921 1.22125 13.7633C0.973752 13.4762 0.837919 13.075 0.837919 12.6333C0.837919 11.8471 1.26125 11.0071 2.45 11.0071H2.85292V10.6004C2.85292 6.8025 4.30459 4.29792 6.33042 2.77792C7.86459 4.62417 9.49292 5.71792 12.9346 5.7225C11.3217 4.50292 12.1279 2.87667 12.1279 2.87667C12.1279 2.87667 15.3538 4.90917 18.1763 4.09625C18.1763 4.09625 16.5633 3.68958 16.1604 2.47042C16.1604 2.47042 17.365 2.77333 18.4733 2.59292C20.6333 4.09125 22.2088 6.64292 22.2088 10.6004V11.0071H22.6125C23.8017 11.0071 24.2254 11.8475 24.2254 12.6333C24.2246 13.4192 23.8008 14.2587 22.6117 14.2587" fill="#363636"/>
<path d="M14.1467 18.7154H14.1433V19.075C14.1433 19.3329 13.9463 19.5429 13.7038 19.5429H11.3575C11.1142 19.5429 10.9171 19.3329 10.9171 19.075V18.7154H10.9138C9.90793 18.7154 9.1796 18.9033 9.1796 20.0567C9.1796 21.7712 10.7883 22.9458 12.53 22.9458C14.2725 22.9458 15.8813 21.7717 15.8813 20.0567C15.8817 18.9033 15.1525 18.7154 14.1467 18.7154M14.0467 21.9608C13.5746 22.0392 13.0717 22.0837 12.5304 22.0837C11.99 22.0837 11.4871 22.0392 11.015 21.9608C10.3046 21.5808 9.7846 20.9258 9.7846 20.0567C9.7846 19.6692 9.81376 19.44 10.3492 19.3583C10.4704 19.8158 10.8767 20.1533 11.3575 20.1533H11.4796C11.8133 20.2882 12.1701 20.357 12.53 20.3558C12.8902 20.3569 13.2472 20.2881 13.5813 20.1533H13.7033C14.1842 20.1533 14.5896 19.8162 14.7108 19.3592C14.8525 19.3812 14.9817 19.4162 15.0738 19.4729C15.1346 19.5104 15.2763 19.5983 15.2763 20.0562C15.2771 20.9254 14.7571 21.5808 14.0467 21.9608ZM14.2721 13.7033H10.7892C9.91876 13.7033 10.7892 14.9525 12.5308 14.9525C14.2721 14.9517 15.1438 13.7033 14.2721 13.7033Z" fill="#363636"/>
</svg>
