<svg width="21" height="14" viewBox="0 0 21 14" fill="none" xmlns="http://www.w3.org/2000/svg">
<path fill-rule="evenodd" clip-rule="evenodd" d="M20.4164 6.36289C19.4903 1.44933 17.4197 0 16.3182 0C14.5993 0 14.1583 1.21393 10.5001 1.25482C6.84179 1.21393 6.40078 0 4.6819 0C3.58043 0 1.50874 1.44933 0.582626 6.36289C0.0544661 9.16779 -0.518844 13.3552 0.84723 13.8579C2.54721 14.4833 3.12367 12.9193 4.9906 11.5976C6.88589 10.258 7.7952 9.94283 10.5001 9.94283C13.2049 9.94283 14.1142 10.258 16.0095 11.5976C17.8764 12.9183 18.4529 14.4833 20.1529 13.8579C21.519 13.3552 20.9456 9.16879 20.4164 6.36289ZM6.29998 7.00028C5.74301 7.00028 5.20886 6.7901 4.81503 6.41597C4.42119 6.04185 4.19994 5.53442 4.19994 5.00533C4.19994 4.47624 4.42119 3.96881 4.81503 3.59469C5.20886 3.22056 5.74301 3.01038 6.29998 3.01038C6.85694 3.01038 7.39109 3.22056 7.78493 3.59469C8.17876 3.96881 8.40001 4.47624 8.40001 5.00533C8.40001 5.53442 8.17876 6.04185 7.78493 6.41597C7.39109 6.7901 6.85694 7.00028 6.29998 7.00028ZM13.6501 7.00028C13.3716 7.00028 13.1045 6.89519 12.9076 6.70813C12.7107 6.52106 12.6001 6.26735 12.6001 6.0028C12.6001 5.73826 12.7107 5.48455 12.9076 5.29748C13.1045 5.11042 13.3716 5.00533 13.6501 5.00533C13.9286 5.00533 14.1957 5.11042 14.3926 5.29748C14.5895 5.48455 14.7001 5.73826 14.7001 6.0028C14.7001 6.26735 14.5895 6.52106 14.3926 6.70813C14.1957 6.89519 13.9286 7.00028 13.6501 7.00028ZM15.7501 5.00533C15.4717 5.00533 15.2046 4.90024 15.0077 4.71318C14.8108 4.52611 14.7001 4.2724 14.7001 4.00785C14.7001 3.74331 14.8108 3.4896 15.0077 3.30253C15.2046 3.11547 15.4717 3.01038 15.7501 3.01038C16.0286 3.01038 16.2957 3.11547 16.4926 3.30253C16.6895 3.4896 16.8002 3.74331 16.8002 4.00785C16.8002 4.2724 16.6895 4.52611 16.4926 4.71318C16.2957 4.90024 16.0286 5.00533 15.7501 5.00533Z" fill="white"/>
</svg>
