<svg width="21" height="18" viewBox="0 0 21 18" fill="none" xmlns="http://www.w3.org/2000/svg">
<path d="M20.8745 17.656C20.8032 17.7615 20.7052 17.8483 20.5896 17.9084C20.4739 17.9685 20.3443 18 20.2125 18H12.3375C12.1286 18 11.9283 17.921 11.7806 17.7803C11.6329 17.6397 11.55 17.4489 11.55 17.25V0.750139C11.5499 0.578748 11.6115 0.412516 11.7245 0.279116C11.8375 0.145716 11.9951 0.0531958 12.171 0.0169573C12.3468 -0.0192813 12.5305 0.00294832 12.6912 0.0799453C12.852 0.156942 12.9803 0.284061 13.0546 0.440141L20.9297 16.94C20.9841 17.0542 21.0075 17.1796 20.9979 17.3047C20.9883 17.4298 20.9458 17.5506 20.8745 17.656ZM13.125 4.21261V16.5H18.9892L13.125 4.21261ZM0.524901 18C0.436517 18 0.349568 17.9787 0.272113 17.9382C0.194659 17.8976 0.129206 17.8391 0.0818223 17.7681C0.0344388 17.697 0.00665827 17.6157 0.00105588 17.5317C-0.00454651 17.4477 0.0122104 17.3637 0.0497737 17.2875L8.44982 0.287642C8.50059 0.184784 8.58663 0.101469 8.69378 0.0514259C8.80093 0.00138303 8.92279 -0.0124004 9.03926 0.0123473C9.15574 0.037095 9.25988 0.0988969 9.33454 0.187568C9.40919 0.276238 9.4499 0.386486 9.44995 0.500141V17.5C9.44995 17.6326 9.39464 17.7598 9.29618 17.8536C9.19772 17.9473 9.06418 18 8.92495 18H0.524901Z" fill="white"/>
</svg>
