<svg width="21" height="22" viewBox="0 0 21 22" fill="none" xmlns="http://www.w3.org/2000/svg">
<path d="M15.5047 9.90379C17.1593 12.1467 17.6703 14.0931 17.3618 14.4028C17.0521 14.7101 15.1068 14.2003 12.8614 12.5458L6.27872 19.1292C11.2651 21.3186 17.7465 16.7255 18.9116 15.5606C20.0134 14.4623 19.0271 11.619 16.7007 8.70669L15.5047 9.90379ZM8.91249 8.41128C7.60335 6.43636 7.20787 4.81044 7.49018 4.52814C7.76774 4.24941 9.39613 4.64249 11.37 5.95394L12.5886 4.73302C9.89167 2.73904 7.35319 1.95288 6.32637 2.98322C5.22092 4.08622 1.02784 9.9836 2.47755 14.8435L8.91249 8.41128ZM20.6507 0.712894C20.5402 0.602181 20.4089 0.514349 20.2644 0.454421C20.1199 0.394494 19.965 0.363647 19.8085 0.363647C19.6521 0.363647 19.4972 0.394494 19.3527 0.454421C19.2082 0.514349 19.0769 0.602181 18.9664 0.712894L0.348846 19.3305C0.125484 19.5539 0 19.8568 0 20.1727C0 20.4885 0.125484 20.7915 0.348846 21.0148C0.572209 21.2382 0.875153 21.3636 1.19104 21.3636C1.50692 21.3636 1.80986 21.2382 2.03323 21.0148L20.6507 2.39718C20.7615 2.28665 20.8493 2.15538 20.9092 2.01088C20.9692 1.86638 21 1.71147 21 1.55503C21 1.3986 20.9692 1.2437 20.9092 1.09919C20.8493 0.954687 20.7615 0.823418 20.6507 0.712894Z" fill="white"/>
</svg>
