<svg width="21" height="23" viewBox="0 0 21 23" fill="none" xmlns="http://www.w3.org/2000/svg">
<path d="M4.02719 5.76043C2.73048 7.08302 -2.93827 15.3519 1.95962 20.3598C6.85521 25.3688 14.9382 19.5702 16.2373 18.2453C17.5328 16.9227 15.8501 13.0506 12.4789 9.60292C9.10538 6.15284 5.32389 4.43075 4.02719 5.76043ZM14.7337 17.0952C14.35 17.4829 11.3879 16.5551 8.53446 13.6345C5.68332 10.7163 4.77147 7.68581 5.15516 7.29577C5.53423 6.90337 8.49979 7.83592 11.3498 10.7541C14.2055 13.67 15.1151 16.7028 14.7337 17.0952ZM15.7253 7.43406L17.9258 5.18128C18.1425 4.95966 18.2642 4.65907 18.2642 4.34565C18.2642 4.03223 18.1425 3.73164 17.9258 3.51002C17.709 3.28839 17.4151 3.16389 17.1087 3.16389C16.8022 3.16389 16.5083 3.28839 16.2916 3.51002L14.0911 5.7628C13.8744 5.98442 13.7527 6.28501 13.7527 6.59843C13.7527 6.75362 13.7825 6.90729 13.8406 7.05067C13.8987 7.19405 13.9838 7.32432 14.0911 7.43406C14.1984 7.5438 14.3258 7.63085 14.466 7.69023C14.6062 7.74962 14.7564 7.78019 14.9082 7.78019C15.2147 7.78019 15.5086 7.65568 15.7253 7.43406ZM10.7442 4.85507C10.8768 4.93051 11.0227 4.97849 11.1735 4.99627C11.3243 5.01405 11.477 5.00128 11.6229 4.9587C11.7689 4.91611 11.9052 4.84454 12.0241 4.74808C12.143 4.65161 12.2422 4.53214 12.3159 4.39647L13.5722 2.12006C13.7212 1.84608 13.7576 1.52281 13.6735 1.22136C13.5894 0.919905 13.3917 0.664963 13.1238 0.512617C12.8559 0.36027 12.5398 0.322999 12.245 0.409002C11.9503 0.495005 11.701 0.697237 11.552 0.97121L10.2958 3.24763C10.222 3.38328 10.1751 3.53247 10.1577 3.68667C10.1403 3.84087 10.1528 3.99706 10.1944 4.14633C10.2361 4.2956 10.306 4.43501 10.4004 4.55662C10.4947 4.67822 10.6115 4.77964 10.7442 4.85507ZM20.8543 8.4198C20.7807 8.28402 20.6816 8.16443 20.5627 8.06788C20.4438 7.97132 20.3074 7.8997 20.1614 7.8571C20.0155 7.81451 19.8627 7.80177 19.7119 7.81964C19.5611 7.8375 19.4152 7.88561 19.2826 7.96121L17.0405 9.21524C16.9078 9.29068 16.791 9.39209 16.6967 9.5137C16.6024 9.63531 16.5324 9.77472 16.4907 9.92399C16.4491 10.0732 16.4366 10.2294 16.454 10.3836C16.4714 10.5378 16.5183 10.687 16.5921 10.8227C16.6658 10.9583 16.765 11.0778 16.8839 11.1743C17.0028 11.2707 17.1391 11.3423 17.2851 11.3849C17.431 11.4275 17.5838 11.4402 17.7345 11.4225C17.8853 11.4047 18.0312 11.3567 18.1638 11.2813L20.4059 10.0272C20.5386 9.95181 20.6554 9.85039 20.7497 9.72879C20.844 9.60718 20.914 9.46777 20.9557 9.3185C20.9973 9.16923 21.0098 9.01304 20.9924 8.85884C20.975 8.70464 20.9281 8.55546 20.8543 8.4198Z" fill="white"/>
</svg>
