<svg width="21" height="19" viewBox="0 0 21 19" fill="none" xmlns="http://www.w3.org/2000/svg">
<path d="M10.5 19C4.71036 19 0 14.7378 0 9.5C0 4.25399 4.70178 3.57628e-07 10.5 3.57628e-07C16.2896 3.57628e-07 21 4.26175 21 9.5C21 14.7465 16.2987 19 10.5 19ZM10.5 4.70433C9.2415 4.70433 8.03454 5.15665 7.14464 5.9618C6.25475 6.76694 5.75481 7.85895 5.75481 8.9976C5.75481 10.1362 6.25475 11.2283 7.14464 12.0334C8.03454 12.8385 9.2415 13.2909 10.5 13.2909H10.7125L10.0002 13.9349C9.8677 14.0548 9.79323 14.2174 9.79323 14.387C9.79323 14.5566 9.8677 14.7193 10.0002 14.8392C10.1328 14.9591 10.3126 15.0265 10.5 15.0265C10.6874 15.0265 10.8672 14.9591 10.9998 14.8392L13.019 13.0123C13.0846 12.9529 13.1367 12.8824 13.1722 12.8048C13.2077 12.7272 13.226 12.6441 13.226 12.5601C13.226 12.4761 13.2077 12.393 13.1722 12.3154C13.1367 12.2378 13.0846 12.1673 13.019 12.1079L10.9998 10.281C10.8672 10.1611 10.6874 10.0937 10.5 10.0937C10.3126 10.0937 10.1328 10.1611 10.0002 10.281C9.8677 10.4009 9.79323 10.5636 9.79323 10.7332C9.79323 10.9028 9.8677 11.0654 10.0002 11.1853L10.9089 12.0075C10.7888 12.012 10.6514 12.012 10.5 12.012C9.84105 12.012 9.19689 11.8352 8.64899 11.504C8.10109 11.1728 7.67405 10.702 7.42188 10.1512C7.16971 9.60035 7.10373 8.99425 7.23229 8.40951C7.36084 7.82477 7.67816 7.28765 8.14411 6.86608C8.61006 6.4445 9.20372 6.15741 9.85001 6.04109C10.4963 5.92478 11.1662 5.98448 11.775 6.21263C12.3838 6.44079 12.9041 6.82715 13.2702 7.32287C13.6363 7.81859 13.8317 8.4014 13.8317 8.9976C13.8317 9.16718 13.9062 9.32982 14.0387 9.44974C14.1713 9.56965 14.351 9.63702 14.5385 9.63702C14.7259 9.63702 14.9057 9.56965 15.0382 9.44974C15.1707 9.32982 15.2452 9.16718 15.2452 8.9976C15.2437 7.85936 14.7433 6.76812 13.8537 5.96327C12.9642 5.15841 11.7581 4.70566 10.5 4.70433V4.70433Z" fill="white"/>
</svg>
