<svg width="25" height="25" viewBox="0 0 25 25" fill="none" xmlns="http://www.w3.org/2000/svg">
<path d="M21.5909 9.21053V3.94737H15.9091V0H9.09091V3.94737H3.40909V9.21053H0V17.1053H3.40909V25H21.5909V17.1053H25V9.21053H21.5909ZM7.38636 12.5C7.38636 11.4079 8.14773 10.5263 9.09091 10.5263C10.0341 10.5263 10.7955 11.4079 10.7955 12.5C10.7955 13.5921 10.0341 14.4737 9.09091 14.4737C8.14773 14.4737 7.38636 13.5921 7.38636 12.5ZM17.0455 19.7368H7.95455V17.1053H17.0455V19.7368ZM15.9091 14.4737C14.9659 14.4737 14.2045 13.5921 14.2045 12.5C14.2045 11.4079 14.9659 10.5263 15.9091 10.5263C16.8523 10.5263 17.6136 11.4079 17.6136 12.5C17.6136 13.5921 16.8523 14.4737 15.9091 14.4737Z" fill="#363636"/>
</svg>
