<svg width="29" height="33" viewBox="0 0 29 33" fill="none" xmlns="http://www.w3.org/2000/svg">
<path d="M12.4286 14.632H8.28571V18.609H12.4286V14.632ZM24.8571 2.70116H4.14286C1.85458 2.70116 0 4.48147 0 6.67811V26.5629C0 28.7595 1.85458 30.5398 4.14286 30.5398H24.8571C27.1454 30.5398 29 28.7595 29 26.5629V6.67811C29 4.48147 27.1422 2.70116 24.8571 2.70116ZM24.8571 10.6551H20.7143V14.632H24.8571V18.609H20.7143V22.5859H24.8571V26.5629H20.7143V22.5859H16.5714V26.5629H12.4286V22.5859H8.28571V26.5629H4.14286V22.5859H8.28571V18.609H4.14286V14.632H8.28571V10.6551H4.14286V6.67811H8.28571V10.6551H12.4286V6.67811H16.5714V10.6551H20.7143V6.67811H24.8571V10.6551ZM12.4286 18.609V22.5859H16.5714V18.609H12.4286ZM16.5714 14.632V10.6551H12.4286V14.632H16.5714ZM16.5714 18.609H20.7143V14.632H16.5714V18.609Z" fill="white"/>
</svg>
