<svg width="21" height="21" viewBox="0 0 21 21" fill="none" xmlns="http://www.w3.org/2000/svg">
<path d="M10.5 7.63636C12.075 7.63636 13.3636 8.925 13.3636 10.5C13.3636 12.075 12.075 13.3636 10.5 13.3636C8.925 13.3636 7.63636 12.075 7.63636 10.5C7.63636 8.925 8.925 7.63636 10.5 7.63636ZM10.5 5.72727C7.86545 5.72727 5.72727 7.86545 5.72727 10.5C5.72727 13.1345 7.86545 15.2727 10.5 15.2727C13.1345 15.2727 15.2727 13.1345 15.2727 10.5C15.2727 7.86545 13.1345 5.72727 10.5 5.72727ZM0.954545 11.4545H2.86364C3.38864 11.4545 3.81818 11.025 3.81818 10.5C3.81818 9.975 3.38864 9.54545 2.86364 9.54545H0.954545C0.429545 9.54545 0 9.975 0 10.5C0 11.025 0.429545 11.4545 0.954545 11.4545ZM18.1364 11.4545H20.0455C20.5705 11.4545 21 11.025 21 10.5C21 9.975 20.5705 9.54545 20.0455 9.54545H18.1364C17.6114 9.54545 17.1818 9.975 17.1818 10.5C17.1818 11.025 17.6114 11.4545 18.1364 11.4545ZM9.54545 0.954545V2.86364C9.54545 3.38864 9.975 3.81818 10.5 3.81818C11.025 3.81818 11.4545 3.38864 11.4545 2.86364V0.954545C11.4545 0.429545 11.025 0 10.5 0C9.975 0 9.54545 0.429545 9.54545 0.954545ZM9.54545 18.1364V20.0455C9.54545 20.5705 9.975 21 10.5 21C11.025 21 11.4545 20.5705 11.4545 20.0455V18.1364C11.4545 17.6114 11.025 17.1818 10.5 17.1818C9.975 17.1818 9.54545 17.6114 9.54545 18.1364ZM4.76318 3.41727C4.67487 3.32878 4.56998 3.25858 4.4545 3.21068C4.33903 3.16278 4.21524 3.13812 4.09023 3.13812C3.96521 3.13812 3.84142 3.16278 3.72595 3.21068C3.61047 3.25858 3.50558 3.32878 3.41727 3.41727C3.32878 3.50558 3.25858 3.61047 3.21068 3.72595C3.16278 3.84142 3.13812 3.96521 3.13812 4.09023C3.13812 4.21524 3.16278 4.33903 3.21068 4.4545C3.25858 4.56998 3.32878 4.67487 3.41727 4.76318L4.42909 5.775C4.80136 6.14727 5.41227 6.14727 5.775 5.775C6.13773 5.40273 6.14727 4.79182 5.775 4.42909L4.76318 3.41727ZM16.5709 15.225C16.4826 15.1365 16.3777 15.0663 16.2622 15.0184C16.1468 14.9705 16.023 14.9458 15.898 14.9458C15.7729 14.9458 15.6492 14.9705 15.5337 15.0184C15.4182 15.0663 15.3133 15.1365 15.225 15.225C15.1365 15.3133 15.0663 15.4182 15.0184 15.5337C14.9705 15.6492 14.9458 15.7729 14.9458 15.898C14.9458 16.023 14.9705 16.1468 15.0184 16.2622C15.0663 16.3777 15.1365 16.4826 15.225 16.5709L16.2368 17.5827C16.6091 17.955 17.22 17.955 17.5827 17.5827C17.6712 17.4944 17.7414 17.3895 17.7893 17.274C17.8372 17.1586 17.8619 17.0348 17.8619 16.9098C17.8619 16.7848 17.8372 16.661 17.7893 16.5455C17.7414 16.43 17.6712 16.3251 17.5827 16.2368L16.5709 15.225ZM17.5827 4.76318C17.6712 4.67487 17.7414 4.56998 17.7893 4.4545C17.8372 4.33903 17.8619 4.21524 17.8619 4.09023C17.8619 3.96521 17.8372 3.84142 17.7893 3.72595C17.7414 3.61047 17.6712 3.50558 17.5827 3.41727C17.4944 3.32878 17.3895 3.25858 17.274 3.21068C17.1586 3.16278 17.0348 3.13812 16.9098 3.13812C16.7848 3.13812 16.661 3.16278 16.5455 3.21068C16.43 3.25858 16.3251 3.32878 16.2368 3.41727L15.225 4.42909C14.8527 4.80136 14.8527 5.41227 15.225 5.775C15.5973 6.13773 16.2082 6.14727 16.5709 5.775L17.5827 4.76318ZM5.775 16.5709C5.86349 16.4826 5.93369 16.3777 5.9816 16.2622C6.0295 16.1468 6.05415 16.023 6.05415 15.898C6.05415 15.7729 6.0295 15.6492 5.9816 15.5337C5.93369 15.4182 5.86349 15.3133 5.775 15.225C5.68669 15.1365 5.5818 15.0663 5.46632 15.0184C5.35085 14.9705 5.22706 14.9458 5.10205 14.9458C4.97703 14.9458 4.85324 14.9705 4.73777 15.0184C4.62229 15.0663 4.5174 15.1365 4.42909 15.225L3.41727 16.2368C3.045 16.6091 3.045 17.22 3.41727 17.5827C3.78955 17.9455 4.40045 17.955 4.76318 17.5827L5.775 16.5709Z" fill="white"/>
</svg>
